<svg width="67" height="60" viewBox="0 0 67 60" fill="none" xmlns="http://www.w3.org/2000/svg">
<path d="M53.0417 27.5H13.9583C10.8747 27.5 8.375 29.7386 8.375 32.5V50C8.375 52.7614 10.8747 55 13.9583 55H53.0417C56.1253 55 58.625 52.7614 58.625 50V32.5C58.625 29.7386 56.1253 27.5 53.0417 27.5Z" stroke="black" stroke-linecap="round" stroke-linejoin="round"/>
<path d="M19.5415 27.5V17.5C19.5415 14.1848 21.0121 11.0054 23.6298 8.66117C26.2475 6.31696 29.7979 5 33.4998 5C37.2018 5 40.7522 6.31696 43.3699 8.66117C45.9876 11.0054 47.4582 14.1848 47.4582 17.5V27.5" stroke="black" stroke-linecap="round" stroke-linejoin="round"/>
</svg>
