<svg width="80" height="72" viewBox="0 0 80 72" fill="none" xmlns="http://www.w3.org/2000/svg">
<g filter="url(#filter0_d_281_252)">
<path d="M66.6668 63V57C66.6668 53.8174 65.2621 50.7652 62.7616 48.5147C60.2611 46.2643 56.8697 45 53.3335 45H26.6668C23.1306 45 19.7392 46.2643 17.2387 48.5147C14.7383 50.7652 13.3335 53.8174 13.3335 57V63" stroke="black" stroke-linecap="round" stroke-linejoin="round"/>
<path d="M39.9998 33C47.3636 33 53.3332 27.6274 53.3332 21C53.3332 14.3726 47.3636 9 39.9998 9C32.636 9 26.6665 14.3726 26.6665 21C26.6665 27.6274 32.636 33 39.9998 33Z" stroke="black" stroke-linecap="round" stroke-linejoin="round"/>
</g>
<defs>
<filter id="filter0_d_281_252" x="-4" y="0" width="88" height="80" filterUnits="userSpaceOnUse" color-interpolation-filters="sRGB">
<feFlood flood-opacity="0" result="BackgroundImageFix"/>
<feColorMatrix in="SourceAlpha" type="matrix" values="0 0 0 0 0 0 0 0 0 0 0 0 0 0 0 0 0 0 127 0" result="hardAlpha"/>
<feOffset dy="4"/>
<feGaussianBlur stdDeviation="2"/>
<feComposite in2="hardAlpha" operator="out"/>
<feColorMatrix type="matrix" values="0 0 0 0 0 0 0 0 0 0 0 0 0 0 0 0 0 0 0.25 0"/>
<feBlend mode="normal" in2="BackgroundImageFix" result="effect1_dropShadow_281_252"/>
<feBlend mode="normal" in="SourceGraphic" in2="effect1_dropShadow_281_252" result="shape"/>
</filter>
</defs>
</svg>
